<?xml version="1.0" encoding="UTF-8"?>
<svg xmlns="http://www.w3.org/2000/svg" xmlns:xlink="http://www.w3.org/1999/xlink" width="147px" height="30px" viewBox="0 0 147 30" version="1.1">
<g id="surface1">
<path style=" stroke:none;fill-rule:nonzero;fill:rgb(0%,0%,0%);fill-opacity:1;" d="M 42.050781 0.753906 C 42.460938 0.71875 42.871094 0.726562 43.28125 0.726562 C 51.507812 0.726562 59.734375 0.726562 67.960938 0.726562 C 67.960938 3.34375 67.960938 5.960938 67.960938 8.578125 C 50.246094 8.578125 32.53125 8.574219 14.816406 8.578125 C 16.527344 5.972656 18.234375 3.367188 19.949219 0.761719 C 24.964844 0.761719 29.984375 0.761719 35.003906 0.761719 C 35.007812 2.769531 34.992188 4.777344 35.011719 6.785156 C 35.460938 4.929688 36.621094 3.265625 38.179688 2.171875 C 39.316406 1.367188 40.667969 0.871094 42.050781 0.753906 Z M 42.050781 0.753906 "/>
<path style=" stroke:none;fill-rule:nonzero;fill:rgb(0%,0%,0%);fill-opacity:1;" d="M 108.730469 0.785156 C 109.328125 0.707031 109.929688 0.730469 110.53125 0.726562 C 119.230469 0.726562 127.933594 0.722656 136.632812 0.726562 C 136.632812 3.34375 136.632812 5.960938 136.632812 8.578125 C 124.996094 8.582031 113.363281 8.578125 101.726562 8.574219 C 101.761719 6.460938 102.679688 4.386719 104.210938 2.9375 C 105.4375 1.757812 107.042969 0.988281 108.730469 0.785156 Z M 108.730469 0.785156 "/>
<path style=" stroke:none;fill-rule:nonzero;fill:rgb(0%,0%,0%);fill-opacity:1;" d="M 69.210938 0.761719 C 71.832031 0.761719 74.453125 0.761719 77.074219 0.761719 C 77.074219 3.367188 77.074219 5.972656 77.074219 8.578125 C 74.453125 8.578125 71.832031 8.578125 69.210938 8.574219 C 69.210938 5.972656 69.210938 3.367188 69.210938 0.761719 Z M 69.210938 0.761719 "/>
<path style=" stroke:none;fill-rule:nonzero;fill:rgb(0%,0%,0%);fill-opacity:1;" d="M 93.78125 8.578125 C 93.785156 5.972656 93.777344 3.367188 93.785156 0.761719 C 96.40625 0.765625 99.027344 0.761719 101.644531 0.761719 C 101.644531 3.367188 101.644531 5.972656 101.644531 8.578125 C 99.023438 8.578125 96.402344 8.578125 93.78125 8.578125 Z M 93.78125 8.578125 "/>
<path style=" stroke:none;fill-rule:nonzero;fill:rgb(0%,0%,0%);fill-opacity:1;" d="M 141.527344 1.066406 C 142.613281 0.820312 143.800781 1.171875 144.605469 1.9375 C 145.382812 2.703125 145.765625 3.859375 145.578125 4.941406 C 145.410156 5.9375 144.800781 6.871094 143.898438 7.347656 C 142.890625 7.925781 141.585938 7.921875 140.578125 7.34375 C 139.640625 6.84375 139.011719 5.851562 138.878906 4.804688 C 138.761719 3.921875 139.027344 3.007812 139.558594 2.296875 C 140.035156 1.664062 140.757812 1.238281 141.527344 1.066406 M 141.648438 1.617188 C 140.769531 1.804688 139.988281 2.421875 139.648438 3.265625 C 139.125 4.417969 139.515625 5.898438 140.53125 6.644531 C 141.351562 7.269531 142.511719 7.398438 143.4375 6.949219 C 144.273438 6.585938 144.863281 5.769531 145.019531 4.878906 C 145.175781 4.007812 144.894531 3.078125 144.296875 2.433594 C 143.628906 1.734375 142.589844 1.402344 141.648438 1.617188 Z M 141.648438 1.617188 "/>
<path style=" stroke:none;fill-rule:nonzero;fill:rgb(0%,0%,0%);fill-opacity:1;" d="M 140.757812 2.609375 C 141.433594 2.628906 142.117188 2.5625 142.789062 2.671875 C 143.277344 2.746094 143.640625 3.261719 143.550781 3.753906 C 143.488281 4.25 143.011719 4.609375 142.527344 4.632812 C 142.816406 4.742188 143 5.003906 143.171875 5.246094 C 143.398438 5.578125 143.601562 5.925781 143.816406 6.265625 C 143.578125 6.265625 143.335938 6.265625 143.097656 6.265625 C 142.828125 5.808594 142.609375 5.316406 142.25 4.921875 C 142.023438 4.664062 141.652344 4.714844 141.34375 4.710938 C 141.34375 5.230469 141.34375 5.746094 141.34375 6.265625 C 141.148438 6.265625 140.953125 6.265625 140.757812 6.265625 C 140.757812 5.046875 140.757812 3.828125 140.757812 2.609375 M 141.34375 3.105469 C 141.34375 3.472656 141.34375 3.839844 141.34375 4.210938 C 141.726562 4.199219 142.117188 4.238281 142.496094 4.164062 C 142.703125 4.128906 142.898438 3.972656 142.933594 3.757812 C 142.992188 3.488281 142.808594 3.207031 142.542969 3.152344 C 142.148438 3.074219 141.742188 3.113281 141.34375 3.105469 Z M 141.34375 3.105469 "/>
<path style=" stroke:none;fill-rule:nonzero;fill:rgb(0%,0%,0%);fill-opacity:1;" d="M 69.210938 8.914062 C 71.832031 9.046875 74.453125 9.179688 77.074219 9.320312 C 77.078125 12.539062 77.074219 15.761719 77.074219 18.984375 C 77.058594 19.433594 77.121094 19.894531 77.335938 20.292969 C 77.71875 21.050781 78.542969 21.554688 79.386719 21.539062 C 83.121094 21.542969 86.859375 21.542969 90.59375 21.542969 C 91.007812 21.53125 91.429688 21.566406 91.84375 21.511719 C 92.601562 21.398438 93.277344 20.871094 93.582031 20.167969 C 93.734375 19.835938 93.789062 19.464844 93.78125 19.101562 C 93.78125 16.128906 93.785156 13.15625 93.78125 10.183594 C 96.402344 10.316406 99.023438 10.453125 101.644531 10.589844 C 101.648438 14.121094 101.644531 17.648438 101.648438 21.175781 C 110.328125 21.175781 119.007812 21.175781 127.6875 21.175781 C 127.996094 21.175781 128.316406 21.199219 128.609375 21.070312 C 129.117188 20.867188 129.46875 20.335938 129.460938 19.785156 C 129.460938 19.238281 129.101562 18.710938 128.589844 18.515625 C 128.363281 18.417969 128.113281 18.417969 127.871094 18.402344 C 122.117188 18.046875 116.359375 17.695312 110.601562 17.339844 C 108.429688 17.273438 106.257812 16.523438 104.578125 15.128906 C 103.203125 13.984375 102.214844 12.367188 101.871094 10.601562 C 110.992188 11.066406 120.113281 11.539062 129.238281 11.929688 C 131.21875 12.0625 133.128906 12.992188 134.480469 14.453125 C 135.578125 15.628906 136.3125 17.140625 136.542969 18.734375 C 136.667969 19.535156 136.625 20.347656 136.628906 21.15625 C 136.609375 23.132812 135.808594 25.082031 134.453125 26.515625 C 132.992188 28.082031 130.882812 29.023438 128.738281 29.03125 C 119.667969 29.035156 110.59375 29.03125 101.519531 29.035156 C 101.511719 26.917969 101.523438 24.800781 101.511719 22.6875 C 101.132812 24.671875 99.957031 26.492188 98.300781 27.640625 C 96.964844 28.585938 95.324219 29.074219 93.691406 29.03125 C 88.445312 29.03125 83.203125 29.03125 77.960938 29.03125 C 77.214844 29.027344 76.464844 29.0625 75.730469 28.933594 C 73.824219 28.628906 72.058594 27.566406 70.871094 26.042969 C 70.082031 25.035156 69.542969 23.828125 69.324219 22.5625 C 68.925781 24.625 67.679688 26.5 65.9375 27.667969 C 64.976562 28.320312 63.871094 28.761719 62.726562 28.9375 C 62.132812 29.035156 61.535156 29.039062 60.9375 29.03125 C 49.582031 29.03125 38.226562 29.03125 26.867188 29.03125 C 26.867188 22.613281 26.867188 16.191406 26.867188 9.773438 C 38.410156 10.523438 49.949219 11.289062 61.488281 12.042969 C 63.257812 12.042969 65.027344 12.625 66.429688 13.714844 C 67.78125 14.753906 68.785156 16.246094 69.210938 17.898438 C 69.210938 14.902344 69.210938 11.90625 69.210938 8.914062 M 35.003906 21.175781 C 43.644531 21.175781 52.289062 21.175781 60.929688 21.175781 C 61.574219 21.183594 62.167969 20.679688 62.277344 20.046875 C 62.394531 19.457031 62.070312 18.820312 61.535156 18.5625 C 61.214844 18.390625 60.84375 18.421875 60.496094 18.390625 C 54.59375 18.019531 48.6875 17.65625 42.785156 17.285156 C 41.109375 17.078125 39.457031 16.492188 38.085938 15.492188 C 36.589844 14.414062 35.449219 12.816406 35.011719 11.015625 C 34.992188 14.402344 35.007812 17.789062 35.003906 21.175781 Z M 35.003906 21.175781 "/>
<path style=" stroke:none;fill-rule:nonzero;fill:rgb(0%,0%,0%);fill-opacity:1;" d="M 1.382812 29.03125 C 5.753906 22.375 10.128906 15.714844 14.5 9.054688 C 17.515625 9.226562 20.53125 9.402344 23.546875 9.578125 C 19.402344 16.066406 15.253906 22.546875 11.113281 29.03125 C 7.867188 29.035156 4.625 29.03125 1.382812 29.03125 Z M 1.382812 29.03125 "/>
</g>
</svg>
