<?xml version="1.0" encoding="UTF-8"?>
<svg xmlns="http://www.w3.org/2000/svg" xmlns:xlink="http://www.w3.org/1999/xlink" width="69px" height="30px" viewBox="0 0 68 30" version="1.1">
<g id="surface1">
<path style=" stroke:none;fill-rule:nonzero;fill:rgb(64.705882%,0%,20.392157%);fill-opacity:1;" d="M 14.933594 30.09375 C 23.171875 30.09375 29.867188 23.363281 29.867188 15.050781 C 29.867188 6.734375 23.171875 0 14.933594 0 C 6.679688 0 0 6.734375 0 15.050781 C 0 23.363281 6.679688 30.09375 14.933594 30.09375 "/>
<path style=" stroke:none;fill-rule:nonzero;fill:rgb(100%,100%,100%);fill-opacity:1;" d="M 14.332031 8.445312 L 14.332031 21.648438 L 18.496094 21.648438 L 18.496094 20.460938 L 15.53125 20.460938 L 15.53125 8.445312 Z M 14.332031 8.445312 "/>
<path style=" stroke:none;fill-rule:nonzero;fill:rgb(100%,100%,100%);fill-opacity:1;" d="M 10.164062 12.046875 C 11.15625 12.046875 11.953125 11.234375 11.953125 10.242188 C 11.953125 9.25 11.15625 8.4375 10.164062 8.4375 C 9.175781 8.4375 8.375 9.25 8.375 10.242188 C 8.375 11.238281 9.175781 12.046875 10.164062 12.046875 "/>
<path style=" stroke:none;fill-rule:nonzero;fill:rgb(100%,100%,100%);fill-opacity:1;" d="M 15.53125 2.457031 C 15.375 2.449219 15.078125 2.4375 14.9375 2.4375 C 8.042969 2.4375 2.433594 8.097656 2.433594 15.042969 C 2.433594 18.417969 3.734375 21.582031 6.089844 23.957031 C 8.453125 26.332031 11.589844 27.640625 14.9375 27.640625 C 18.269531 27.640625 21.40625 26.332031 23.765625 23.957031 C 26.128906 21.582031 27.433594 18.417969 27.433594 15.042969 L 27.433594 14.484375 L 18.507812 14.484375 L 18.507812 15.644531 L 26.242188 15.644531 C 26.242188 15.667969 26.242188 15.792969 26.238281 15.824219 C 25.84375 21.761719 20.925781 26.464844 14.9375 26.464844 C 11.90625 26.464844 9.0625 25.277344 6.921875 23.117188 C 4.777344 20.96875 3.59375 18.105469 3.59375 15.042969 C 3.59375 12 4.777344 9.121094 6.921875 6.964844 C 9.0625 4.808594 11.90625 3.621094 14.9375 3.621094 C 15.066406 3.621094 15.386719 3.621094 15.53125 3.628906 Z M 15.53125 2.457031 "/>
<path style=" stroke:none;fill-rule:nonzero;fill:rgb(41.960784%,41.960784%,41.960784%);fill-opacity:1;" d="M 41.097656 5.066406 L 36.609375 5.066406 L 36.609375 24.65625 L 50.390625 24.65625 L 50.390625 20.839844 L 41.097656 20.839844 Z M 60.261719 17.191406 L 63.917969 17.191406 L 63.917969 20.613281 C 63.242188 20.875 61.929688 21.132812 60.679688 21.132812 C 56.640625 21.132812 55.296875 19.0625 55.296875 14.863281 C 55.296875 10.855469 56.578125 8.492188 60.613281 8.492188 C 62.859375 8.492188 64.140625 9.203125 65.199219 10.5625 L 67.988281 7.976562 C 66.289062 5.519531 63.308594 4.777344 60.519531 4.777344 C 54.234375 4.777344 50.933594 8.234375 50.933594 14.828125 C 50.933594 21.390625 53.914062 24.945312 60.488281 24.945312 C 63.5 24.945312 66.449219 24.167969 68.050781 23.039062 L 68.050781 13.535156 L 60.261719 13.535156 Z M 60.261719 17.191406 "/>
</g>
</svg>
