<?xml version="1.0" encoding="UTF-8"?>
<svg xmlns="http://www.w3.org/2000/svg" xmlns:xlink="http://www.w3.org/1999/xlink" width="94px" height="30px" viewBox="0 0 94 30" version="1.1">
<g id="surface1">
<path style=" stroke:none;fill-rule:evenodd;fill:rgb(0%,45.882353%,72.941176%);fill-opacity:1;" d="M 0 1.636719 L 0 28.730469 L 12.894531 28.730469 C 18.5625 28.730469 25.824219 25.097656 25.824219 15.167969 C 25.824219 4.308594 17.382812 1.636719 9.671875 1.636719 Z M 9.527344 10.007812 C 9.527344 10.007812 11.1875 10.007812 11.1875 10.007812 C 13.792969 10.007812 16.011719 12.265625 16.046875 15.300781 C 16.046875 15.304688 16.046875 15.304688 16.046875 15.308594 C 16.011719 18.34375 14.03125 20.59375 11.425781 20.59375 C 11.425781 20.59375 9.527344 20.59375 9.527344 20.59375 Z M 9.527344 10.007812 "/>
<path style=" stroke:none;fill-rule:evenodd;fill:rgb(0%,45.882353%,72.941176%);fill-opacity:1;" d="M 56.359375 1.636719 L 56.359375 28.730469 L 74.203125 28.730469 L 74.203125 20.164062 L 65.800781 20.164062 L 65.800781 1.636719 Z M 56.359375 1.636719 "/>
<path style=" stroke:none;fill-rule:evenodd;fill:rgb(0%,45.882353%,72.941176%);fill-opacity:1;" d="M 47.878906 5.75 L 34.695312 14.105469 L 32.398438 12.554688 L 32.402344 12.554688 L 45.886719 3.921875 L 45.914062 3.9375 L 39.746094 0 L 16.261719 15.015625 L 39.867188 29.988281 L 63.1875 15.050781 L 56.433594 10.90625 L 42.992188 19.421875 L 40.730469 17.875 L 53.800781 9.527344 Z M 47.878906 5.75 "/>
<path style=" stroke:none;fill-rule:evenodd;fill:rgb(0%,45.882353%,72.941176%);fill-opacity:1;" d="M 75.902344 1.636719 L 75.902344 28.699219 L 93.75 28.699219 L 93.75 20.164062 L 85.34375 20.164062 L 85.34375 1.636719 Z M 75.902344 1.636719 "/>
<path style=" stroke:none;fill-rule:evenodd;fill:rgb(0%,45.882353%,72.941176%);fill-opacity:1;" d="M 90.027344 1.59375 L 91.613281 1.59375 L 91.613281 1.972656 L 91.03125 1.972656 L 91.03125 3.6875 L 90.613281 3.6875 L 90.613281 1.972656 L 90.027344 1.972656 Z M 90.027344 1.59375 "/>
<path style=" stroke:none;fill-rule:evenodd;fill:rgb(0%,45.882353%,72.941176%);fill-opacity:1;" d="M 92.722656 3.441406 L 92.214844 2.175781 L 92.214844 3.667969 L 91.824219 3.667969 L 91.824219 1.59375 L 92.46875 1.59375 L 92.910156 2.855469 L 93.355469 1.59375 L 94 1.59375 L 94 3.667969 L 93.609375 3.667969 L 93.609375 2.175781 L 93.101562 3.441406 Z M 92.722656 3.441406 "/>
</g>
</svg>
